# xmcd
# 
# Track frame offsets:
#     150
#     40743
#     56816
#     99801
#     130212
#     171290
#     205897
#     214528
#     231659
# 
# Disc length: 3335
# 
# Revision: 2
# Processed by: cddbd v1.5.2PL0 Copyright (c) Steve Scherf et al.
# Submitted via: fre:ac v1.0.27
# 
DISCID=7d0d0509
DTITLE=Steve Hackett - The Tokyo Tapes [CD1]
DYEAR=1997
DGENRE=Progressive Rock
TTITLE0=Watcher Of The Skies
TTITLE1=Riding The Colossus
TTITLE2=Firth Of Fifth
TTITLE3=Battlelines
TTITLE4=Camino Royale
TTITLE5=The Court Of The Crimson King
TTITLE6=Horizons
TTITLE7=Walking Away From Rainbows
TTITLE8=Heat Of The Moment
EXTD=YEAR: 1997
EXTT0=
EXTT1=
EXTT2=
EXTT3=
EXTT4=
EXTT5=
EXTT6=
EXTT7=
EXTT8=
PLAYORDER=
